<svg version="1" xmlns="http://www.w3.org/2000/svg" width="1365.333" height="1365.333" viewBox="0 0 1024.000000 1024.000000"><path d="M85.7 1C72.5 3.3 57.6 9.2 46.5 16.5c-22.3 14.8-35.3 33-43.8 61l-2.2 7-.3 424C0 893.4.1 933.2 1.5 940.5c3.3 15.9 9.5 29.9 19.2 43 13.5 18.3 35.6 32.7 58.3 38.2 7.2 1.7 26 1.8 433 1.8s425.8-.1 433-1.8c10.4-2.5 23-8 32.5-14.2 22.3-14.6 36.4-34.5 44.2-62.5 1.7-6.2 1.8-24.7 1.8-433s-.1-426.8-1.8-433c-4.4-15.7-9.9-27.2-18.7-38.8-13.3-17.7-30.7-29.4-54.5-36.9l-9-2.8L515 .4C281.5.3 88.3.6 85.7 1zM716 243.5c49.7 8.4 78.1 31.2 88.5 71.2 3.9 14.9 4.5 23.6 4.5 65.5V420h-55v-39.3c0-44-.5-48.1-6.6-60.5-6.5-13.3-19.1-23.1-35.8-27.9-18-5.2-47.5-5.3-65.6-.3-22.3 6.3-36.9 21.1-41.5 42.4-1.5 6.5-1.7 10.9-1.2 23 1.1 30.7 6.3 44.2 24.1 62.5 4.4 4.6 40.1 39.1 79.1 76.6 39.1 37.6 73.5 71.4 76.6 75.2 13.1 16 23 33.3 27.7 48.3 4.4 14.4 5.6 25.2 5.6 50 0 20.5-.2 24.7-2.1 33.2-9.1 40.3-35 65.1-78.8 75.3-17.9 4.1-26.7 5-53 5s-35.1-.9-53-5c-43.6-10.1-69.5-34.8-78.7-74.8-1.9-8.5-2.2-12.8-2.5-54l-.4-44.7H603v39.2c0 44.3.5 48.2 6.7 60 8.4 16.1 24.6 26.4 48.3 30.9 3.7.8 14.3 1.3 24.5 1.3 23.9 0 35.8-2.4 50.9-10.2 8.2-4.3 18-13.6 21.9-20.9 6.2-11.6 8.1-27.6 5.7-48.8-2.2-18.7-6.6-30.5-16.7-44-3.9-5.3-27.8-29.4-70.9-71.3-96.7-94.4-101.1-99-111.1-117.9-9.3-17.5-13.2-34.8-14-62.8-.8-27 2-43.9 10.1-60.5 17-34.8 49.7-53.8 100.6-58.4 10.3-.9 47.8.3 57 1.9zm-281 33V300H263v185h140v47H263v193h180v47H208V253h227v23.5z"/></svg>